<svg xmlns="http://www.w3.org/2000/svg" viewBox="0 0 512 512">
  <defs>
    <linearGradient id="bg" x1="0" y1="0" x2="1" y2="1">
      <stop offset="0" stop-color="#3B1B6E"/><stop offset="1" stop-color="#1E0C3C"/>
    </linearGradient>
    <linearGradient id="mk" x1="0" y1="0" x2="1" y2="1">
      <stop offset="0" stop-color="#8B5CF6"/><stop offset="1" stop-color="#14B8A6"/>
    </linearGradient>
  </defs>
  <rect width="512" height="512" rx="112" fill="url(#bg)"/>
  <g transform="translate(256 262) scale(9.2) translate(-24 -24)">
    <path d="M24 12c-4 0-7 2.4-7 6.5 0 2 .9 3.4 2 4.6-1.4 1-2.4 2.6-2.4 4.7 0 3.9 3.2 6.2 7.4 6.2s7.4-2.3 7.4-6.2c0-2.1-1-3.7-2.4-4.7 1.1-1.2 2-2.6 2-4.6 0-4.1-3-6.5-7-6.5z" fill="url(#mk)"/>
    <ellipse cx="24" cy="29" rx="3.4" ry="2.6" fill="#fff"/>
    <circle cx="22.8" cy="29" r=".7" fill="#3B1B6E"/><circle cx="25.2" cy="29" r=".7" fill="#3B1B6E"/>
    <circle cx="18.5" cy="17" r="1.1" fill="#fff"/><circle cx="29.5" cy="17" r="1.1" fill="#fff"/>
  </g>
  <path d="M256 300 l30 44 l52-11 l-8 52 l47 26 l-36 40 l21 49 l-53 2 l-17 51 l-56-42" fill="none" stroke="url(#mk)" stroke-width="7" stroke-linejoin="round" opacity="0.18"/>
</svg>
